<svg xmlns="http://www.w3.org/2000/svg" version="1.1" xmlns:xlink="http://www.w3.org/1999/xlink" xmlns:svgjs="http://svgjs.com/svgjs" width="512" height="512" x="0" y="0" viewBox="0 0 512 512" style="enable-background:new 0 0 512 512" xml:space="preserve" class=""><g><switch xmlns="http://www.w3.org/2000/svg"><g><g id="AXOLOTL_Eat"><g><path clip-rule="evenodd" d="m239.123 355.419s32.504 26.438 119.711 24.721c87.2-1.707 103.504-27.731 103.504-27.731-5.979-20.926-221.157-15.096-223.215 3.01z" fill="#cecece" fill-rule="evenodd" data-original="#cecece"></path><path d="m350.682 382.135c-80.782 0-111.458-24.17-112.765-25.232-.505-.41-.766-1.053-.692-1.7.291-2.563 1.176-10.368 60.891-15.312 57.021-4.716 161.283-4.746 166.063 11.99.149.522.069 1.083-.218 1.54-.688 1.1-17.858 26.923-105.09 28.631-2.785.057-5.514.083-8.189.083zm-109.176-27.355c6.543 4.466 40.852 24.947 117.291 23.45 76.228-1.497 97.688-21.862 101.323-26.09-6.839-10.182-87.886-14.54-161.688-8.435-40.22 3.331-54.281 8.284-56.926 11.075z" fill="#260053" data-original="#260053" class=""></path></g><g transform="translate(-554.168 463.259)"><g><path clip-rule="evenodd" d="m1040.688 2.214h-269.752s-27.593-44.501-26.215-79.684 27.593-91.069 27.593-91.069l132.804-6.551 5.862 84.168s86.235 10.007 92.447 55.886c24.922-58.781 51.773-5.842 37.261 37.25z" fill="#ff7a9a" fill-rule="evenodd" data-original="#ff7a9a" class=""></path><path d="m1040.687 3.881h-269.751c-.578 0-1.115-.298-1.419-.79-1.137-1.834-27.846-45.342-26.463-80.626 1.374-35.121 26.673-89.424 27.749-91.715.263-.561.813-.928 1.43-.958l132.802-6.55c.893-.151 1.687.639 1.747 1.549l5.769 82.801c11.104 1.476 80.603 12.258 91.473 51.956 11.024-23.191 21.21-23.575 26.474-21.59 13.405 5.091 21.469 35.988 11.77 64.788-.228.678-.864 1.135-1.581 1.135zm-268.808-3.339h267.598c8.176-25.71 1.357-55.084-10.165-59.459-7.635-2.891-16.51 6.04-24.347 24.533-.296.69-1.01 1.092-1.76 1.005-.744-.104-1.331-.686-1.432-1.432-5.965-44.069-90.136-54.355-90.983-54.454-.798-.091-1.417-.738-1.473-1.54l-5.749-82.538-130.157 6.42c-3.363 7.356-25.764 57.509-27.02 89.519-1.245 31.741 21.853 71.845 25.488 77.946z" fill="#260053" data-original="#260053" class=""></path></g></g><g><path clip-rule="evenodd" d="m238.81 355.737c-5.147 28.833 3.522 55.695 24.383 80.819 19.869 23.926 143.1 27.339 177.997-1.049 28.844-23.47 26.226-51.646 21.593-82.557-35.511 28.748-184.629 25.61-223.973 2.787z" fill="#fbfcfb" fill-rule="evenodd" data-original="#fbfcfb" class=""></path><path d="m349.445 457.329c-39.157 0-76.957-7.158-87.443-19.787-21.499-25.892-29.816-53.505-24.716-82.076.088-.496.414-.919.872-1.13.46-.22.99-.19 1.428.065 39.528 22.923 187.951 25.094 222.224-2.658.429-.345 1.016-.449 1.534-.237.518.198.887.664.969 1.212 4.994 33.313 6.534 60.65-22.145 83.987-17.487 14.226-55.712 20.624-92.723 20.624zm-109.469-99.183c-4.148 26.875 4.056 52.91 24.408 77.421 19.07 22.971 141.475 26.686 175.829-1.26 26.681-21.715 25.946-47.4 21.418-78.564-38.637 26.922-178.753 24.851-221.655 2.403z" fill="#260053" data-original="#260053" class=""></path></g><g transform="translate(-554.168 463.259)"><path clip-rule="evenodd" d="m724.527-146.014s-6.466 3.901-12.032 7.272c-4.802 2.905-7.314 8.459-6.318 13.971.021.159.053.318.085.477.859 4.791-2.12 9.445-6.837 10.685-4.007 1.049-6.848 4.601-6.986 8.745-.021.562-.042 1.145-.064 1.728-.085 2.597-1.473 4.972-3.7 6.318-2.216 1.346-4.972 1.484-7.314.371-1.42-.678-2.82-1.346-4.092-1.95-3.36-1.601-7.251-1.707-10.696-.286-1.314.541-2.756 1.134-4.187 1.728-5.184 2.131-11.152.191-14.077-4.59-.647-1.071-1.325-2.173-2.004-3.276-4.59-7.505-13.208-11.555-21.911-10.304-6.647.954-13.081 1.887-13.081 1.887-19.865-18.943-46.473 7.018-29.523 26.501 5.406 4.367 11.682 11.099 12.085 16.791.053.774.148 1.537.286 2.3.265 1.95.965 5.926 1.696 10.102 1.431 8.109 8.205 14.205 16.431 14.777.668.042 1.325.095 1.982.138 6.647.456 12.35 4.887 14.438 11.215 2.502 7.558 9.721 12.54 17.671 12.191 13.95-.615 33.742-1.495 33.742-1.495l39.985-70.441z" fill="#9dff00" fill-rule="evenodd" data-original="#9dff00"></path></g><g transform="translate(-554.168 463.259)"><path clip-rule="evenodd" d="m702.011-189.052s30.614 61.589-.71 96.433c-31.325 34.844-79.896-7.039-79.896-7.039-18.201-14.088-39.551 7.685-16.897 29.215 0 0 65.639 74.744 183.93 81.656 65.448 3.827 93.677-1.982 96.306-27.275 4.58-43.992-41.533-53.851-42.943-4.929 0 0 1.41-52.791-52.791-40.123-26.491-36.879-7.813-89.766 13.229-104.882z" fill="#ffb0c3" fill-rule="evenodd" data-original="#ffb0c3" class=""></path></g><g transform="translate(-554.168 463.259)"><path d="m684.39-12.777c-.276 0-.557-.056-.824-.181-51.84-23.92-80.26-55.861-80.542-56.18-12.575-11.943-12.255-24.343-6.306-31.276 5.341-6.222 15.953-8.5 25.892-.803.55.466 47.557 40.285 77.224 7.279.731-.807 1.976-.872 2.785-.147.809.729.876 1.976.149 2.787-32.251 35.85-82.154-6.442-82.652-6.869-8.284-6.411-16.406-4.336-20.404.324-4.737 5.514-4.671 15.688 6.153 25.974.397.44 28.319 31.785 79.354 55.33.988.457 1.419 1.627.964 2.615-.332.724-1.046 1.147-1.793 1.147z" fill="#260053" data-original="#260053" class=""></path></g><g transform="translate(-554.168 463.259)"><path d="m820.407 14.258c-.276 0-.55 0-.831 0-1.089-.004-1.97-.889-1.967-1.976.002-1.087.884-1.967 1.972-1.967h.004.889c42.829 0 60.318-7.481 62.309-26.578 1.512-14.527-2.606-26.651-11.015-32.433-4.837-3.327-10.372-3.844-15.187-1.394-7.719 3.918-12.387 14.54-12.808 29.145v.004.004c-.032 1.087-.867 1.803-2.026 1.916-1.087-.03-1.944-.936-1.918-2.024.006-.216.384-21.849-13.494-33.144-8.627-7.02-21.04-8.707-36.877-5.005-1.061.237-2.118-.41-2.369-1.471-.248-1.061.41-2.123 1.471-2.369 17.103-4 30.655-2.045 40.285 5.803 7.412 6.045 11.153 14.471 13.036 21.685 2.418-8.664 6.862-14.989 12.914-18.061 6.142-3.111 13.14-2.515 19.206 1.661 9.617 6.614 14.365 20.106 12.702 36.087-2.225 21.367-21.455 30.117-66.296 30.117z" fill="#260053" data-original="#260053" class=""></path></g><g transform="translate(-554.168 463.259)"><path d="m712.901-112.111c-.177 0-.354-.022-.531-.073-1.048-.289-1.663-1.376-1.372-2.429 9.149-32.877-10.553-73.158-10.754-73.563-.343-.695-.25-1.527.242-2.127.492-.595 1.284-.859 2.039-.652l74.288 20.015c1.051.28 1.674 1.363 1.391 2.416-.283 1.057-1.357 1.678-2.418 1.389l-70.23-18.919c4.841 11.123 17.206 43.883 9.244 72.502-.244.871-1.036 1.441-1.899 1.441z" fill="#260053" data-original="#260053" class=""></path></g><g transform="matrix(2.784 0 0 2.784 -3121.39 -2859.23)"><circle clip-rule="evenodd" cx="1177.402" cy="1155.01" fill="#260053" fill-rule="evenodd" r=".782" data-original="#260053" class=""></circle></g><g transform="matrix(2.784 0 0 2.784 -3139.47 -2770.01)"><circle clip-rule="evenodd" cx="1177.012" cy="1156.934" fill="#260053" fill-rule="evenodd" r=".782" data-original="#260053" class=""></circle></g><g transform="matrix(2.784 0 0 2.784 -3027.72 -2747.2)"><circle clip-rule="evenodd" cx="1179.422" cy="1157.426" fill="#260053" fill-rule="evenodd" r=".782" data-original="#260053" class=""></circle></g><g transform="matrix(-.648 .358 .358 .648 1116.39 1772.52)"><path clip-rule="evenodd" d="m-200.014-2442.54s-19.469-6.441-25.032-2.489c-5.563 3.953 2.049 12.004 2.049 12.004s-17.127-9.369-26.203-5.416c-9.076 3.952 5.856 15.663 5.856 15.663s-17.385-8.052-27.375-.146c-9.989 7.905 14.604 13.174 14.604 13.174s-20.933 3.074-20.933 14.639c0 11.564 22.689 6.148 22.689 6.148s-16.688 12.296-8.783 21.958c7.905 9.661 26.642-6.734 30.448-13.468-3.952 9.808-4.538 20.64 6.735 21.666 11.272 1.025 17.859-29.57 17.859-29.57s-1.903 15.078 10.101 14.638c12.003-.439 10.686-27.52 10.686-27.52s-.586 8.636 2.488 8.636 4.538-7.026 3.22-11.125-13.907-21.226-13.907-21.226z" fill="#ff295c" fill-rule="evenodd" data-original="#ff295c"></path></g><g transform="matrix(-.648 .358 .358 .648 1116.39 1772.52)"><path clip-rule="evenodd" d="m-199.373-2443.272c-44.279 12.959-69.904 32.698-56.725 55.353 9.705 16.684 39.058 12.038 74.566-15.782z" fill="#ffb0c3" fill-rule="evenodd" data-original="#ffb0c3" class=""></path></g><g transform="matrix(-1 0 0 1 1335.08 1777.79)"><path clip-rule="evenodd" d="m968.198-1622.208c0-.001 0-.002 0-.002s.16-1.92-.394-3.605c-.368-1.12-1.036-2.117-2.031-2.723-.976-.594-2.325-.899-4.205-.289-16.834 5.461-38.305 1.928-47.955-6.428-2.849-2.468-4.621-5.353-4.608-8.6.014-3.38 1.92-7.024 6.036-10.913.826-.78.863-2.085.082-2.911-.78-.826-2.084-.863-2.91-.083-5.183 4.897-7.308 9.634-7.326 13.89-.017 4.39 2.18 8.395 6.031 11.731 10.455 9.054 33.682 13.149 51.921 7.232.353-.115.604-.215.793-.11.135.075.182.229.234.375.071.203.115.42.151.624.136.764.08 1.457.08 1.457-.1 1.13.739 2.13 1.871 2.228 1.13.098 2.13-.741 2.23-1.873z" fill="#260053" fill-rule="evenodd" data-original="#260053" class=""></path></g><g transform="matrix(-1 0 0 1 1335.08 1777.79)"><path clip-rule="evenodd" d="m897.506-1639.699c-3.313 3.687-3.191 7.936-.05 10.773 2.87 2.592 8.567 4.026 16.926 2.243.567-.121.929-.678.808-1.244-.121-.567-.678-.929-1.246-.808-14.334 3.057-20.066-3.788-14.878-9.561.388-.432.352-1.095-.078-1.482-.432-.387-1.095-.352-1.482.079z" fill="#260053" fill-rule="evenodd" data-original="#260053" class=""></path></g><g transform="matrix(-1 0 0 1 1335.08 1777.79)"><path clip-rule="evenodd" d="m912.323-1620.638c-.86 3.219.64 6.275 3.905 7.491 1.804.672 4.194.769 7.044-.109 3.99-1.23 8.973-4.407 14.527-10.634.385-.432.347-1.097-.086-1.482-.431-.386-1.096-.348-1.481.085-5.206 5.839-9.837 8.873-13.578 10.025-2.305.71-4.235.692-5.694.148-2.174-.81-3.182-2.839-2.61-4.982.149-.56-.183-1.135-.743-1.285-.559-.149-1.134.184-1.284.743z" fill="#260053" fill-rule="evenodd" data-original="#260053" class=""></path></g><g transform="matrix(-1 0 0 1 1335.08 1777.79)"><path clip-rule="evenodd" d="m936.005-1616.504c.777 2.764 3.021 4.35 6.098 4.176 3.996-.227 9.678-3.718 14.898-12.264.301-.494.145-1.141-.349-1.443-.495-.301-1.142-.145-1.443.349-4.698 7.694-9.628 11.057-13.225 11.262-1.983.113-3.459-.866-3.958-2.647-.157-.558-.737-.883-1.294-.726-.558.155-.883.735-.727 1.293z" fill="#260053" fill-rule="evenodd" data-original="#260053" class=""></path></g><g transform="matrix(1.115 .436 -.364 .931 545.088 1728.51)"><path clip-rule="evenodd" d="m-595.37-1340.914c.907 2.179 1.578 4.78.07 5.549-2.739 1.396-7.234-4.2-7.922-8.451-.687-4.25 2.752-25.226 2.752-25.226l-3.965-17.695s14.422-14.58 21.173-13.585 3.625 11.626 3.625 11.626 11.005-16.125 20.886-16.724c9.882-.6 1.895 16.614 1.895 16.614s11.834-15.068 24.324-12.561c12.489 2.507-7.029 18.37-7.029 18.37s20.047-6.766 25.298 3.537c5.25 10.304-17.424 15.781-17.424 15.781s20.452 3.377 17.796 15.575c-2.655 12.198-26.795 6.099-33.244 1.828 7.976 6.943 13.416 16.329 3.838 22.361-9.578 6.031-29.339-18.237-29.339-18.237s8.542 12.57-2.352 17.63c-8.381 3.892-16.898-9.848-20.382-16.392z" fill="#e0325c" fill-rule="evenodd" data-original="#e0325c"></path></g><g transform="matrix(1.115 .436 -.364 .931 545.088 1728.51)"><path clip-rule="evenodd" d="m-605.337-1387.098c45.334-8.561 77.13-2.611 75.675 23.559-1.071 19.272-29.334 28.46-73.602 19.798z" fill="#ff92ac" fill-rule="evenodd" data-original="#ff92ac"></path></g><g transform="matrix(-1.159 .035 .182 1.028 1309.7 1762.25)"><path clip-rule="evenodd" d="m584.901-1524.509s-.086-.894-.46-1.784c-.201-.478-.48-.978-.937-1.242-.391-.226-.887-.249-1.524-.043-.852.276-1.878.939-3.138 2.131-16.779 15.869-41.342 26.621-58.27 24.974-5.849-.569-10.81-2.618-14.316-6.339-3.526-3.743-5.629-9.201-5.608-16.685.002-.554.413-.938.918-.854.505.083.914.6.912 1.154-.018 6.724 1.77 11.653 4.939 15.017 3.19 3.386 7.727 5.165 13.05 5.683 16.593 1.616 40.63-9.019 57.077-24.575 1.476-1.396 2.7-2.14 3.698-2.464 1.213-.392 2.167-.203 2.91.226.905.522 1.532 1.444 1.929 2.39.524 1.246.64 2.493.64 2.493.053.561-.312.998-.814.975-.502-.024-.953-.497-1.006-1.057z" fill="#260053" fill-rule="evenodd" data-original="#260053" class=""></path></g><g transform="matrix(-1.159 .035 .182 1.028 1309.7 1762.25)"><path clip-rule="evenodd" d="m495.732-1494.53c.8 3.907 3.303 5.967 6.59 6.396 5.445.711 12.839-2.746 18.937-9.544.33-.368.907-.321 1.29.102.383.424.426 1.067.096 1.434-6.503 7.25-14.466 10.784-20.274 10.026-4.217-.551-7.396-3.233-8.423-8.245-.115-.559.192-1.051.684-1.097.493-.046.986.37 1.1.928z" fill="#260053" fill-rule="evenodd" data-original="#260053" class=""></path></g><g transform="matrix(-1.159 .035 .182 1.028 1309.7 1762.25)"><path clip-rule="evenodd" d="m526.919-1486.452c1.605 2.419 3.333 3.879 5.109 4.513 1.76.628 3.549.439 5.271-.344 5.561-2.525 10.378-11.052 11.53-20.283.068-.54.529-.852 1.029-.698.5.155.852.718.784 1.256-1.234 9.882-6.499 18.921-12.45 21.624-2.116.96-4.323 1.143-6.485.372-2.146-.765-4.268-2.475-6.207-5.397-.319-.481-.261-1.106.13-1.394.392-.287.969-.13 1.289.351z" fill="#260053" fill-rule="evenodd" data-original="#260053" class=""></path></g><g transform="matrix(-1.159 .035 .182 1.028 1309.7 1762.25)"><path clip-rule="evenodd" d="m559.091-1496.567c7.958-1.541 12.281-9.285 12.811-18.254.033-.549.469-.9.972-.783.505.117.887.657.854 1.206-.579 9.789-5.39 18.153-14.075 19.836-.481.093-.997-.281-1.152-.833-.155-.554.109-1.079.59-1.172z" fill="#260053" fill-rule="evenodd" data-original="#260053" class=""></path></g><g transform="translate(589.394 1816.1)"><path clip-rule="evenodd" d="m-312.565-1504.088c-46.759 6.179-169.315-5.361-182.27-102.751-16.622-124.947 97.389-185.397 184.504-169.314 87.114 16.082 100.963 75.499 101.41 93.369.446 17.869 2.68 31.272 14.296 38.42 11.615 7.148 34.507 21.856 4.467 78.18-21.445 40.205-76.127 55.978-122.407 62.096z" fill="#ffb0c3" fill-rule="evenodd" data-original="#ffb0c3" class=""></path></g><g transform="translate(589.394 1816.1)"><path clip-rule="evenodd" d="m-492.73-1605.229s-19.469-6.441-25.032-2.489c-5.563 3.953 2.049 12.004 2.049 12.004s-17.127-9.369-26.203-5.416c-9.076 3.952 5.856 15.663 5.856 15.663s-17.385-8.052-27.375-.146c-9.989 7.905 14.604 13.174 14.604 13.174s-20.933 3.074-20.933 14.639c0 11.564 22.689 6.148 22.689 6.148s-16.688 12.296-8.783 21.958c7.905 9.661 26.642-6.734 30.448-13.468-3.952 9.808-4.538 20.64 6.735 21.666 11.272 1.025 17.859-29.57 17.859-29.57s-1.903 15.078 10.101 14.638c12.003-.439 10.686-27.52 10.686-27.52s-.586 8.636 2.488 8.636 4.538-7.026 3.22-11.125-13.907-21.227-13.907-21.227z" fill="#ff295c" fill-rule="evenodd" data-original="#ff295c"></path></g><g transform="translate(589.394 1816.1)"><path clip-rule="evenodd" d="m-480.701-1693.762c41.128-81.439 134.463-92.909 183.939-78.738 31.52 9.026 62.967 32.032 77.174 60.981 7.245 14.763 7.555 28.767 9.179 40.743 1.736 12.804 4.941 23.387 18.114 30.546.964.524 2.172.166 2.696-.797.524-.965.166-2.172-.797-2.696-11.844-6.436-14.512-16.075-16.074-27.587-1.674-12.34-2.084-26.748-9.549-41.96-14.673-29.899-47.096-53.729-79.649-63.052-50.728-14.528-146.411-2.733-188.581 80.768-.495.979-.102 2.176.878 2.67.979.495 2.176.101 2.67-.878z" fill="#260053" fill-rule="evenodd" data-original="#260053" class=""></path></g><g transform="matrix(.648 .358 -.358 .648 808.084 1810.83)"><path clip-rule="evenodd" d="m-1919.567-1488.225s-19.469-6.441-25.032-2.489c-5.563 3.953 2.049 12.004 2.049 12.004s-17.127-9.369-26.203-5.416c-9.076 3.952 5.856 15.663 5.856 15.663s-17.385-8.052-27.375-.146c-9.989 7.905 14.604 13.174 14.604 13.174s-20.933 3.074-20.933 14.639c0 11.564 22.689 6.148 22.689 6.148s-16.688 12.296-8.783 21.958c7.905 9.661 26.642-6.735 30.448-13.468-3.952 9.808-4.538 20.64 6.734 21.665s17.859-29.57 17.859-29.57-1.903 15.078 10.101 14.638c12.003-.439 10.686-27.52 10.686-27.52s-.586 8.636 2.488 8.636 4.538-7.026 3.22-11.125-13.907-21.227-13.907-21.227z" fill="#ff295c" fill-rule="evenodd" data-original="#ff295c"></path></g><g transform="matrix(.286 .32 -.32 .286 894.369 1921.31)"><path clip-rule="evenodd" d="m-4336.563-1422.124s-19.469-6.441-25.032-2.489c-5.563 3.953 2.049 12.004 2.049 12.004s-17.127-9.369-26.203-5.416c-9.076 3.952 5.855 15.663 5.855 15.663s-17.385-8.052-27.375-.146c-9.989 7.905 14.604 13.174 14.604 13.174s-20.933 3.074-20.933 14.639c0 11.564 22.689 6.148 22.689 6.148s-16.688 12.296-8.783 21.958c7.905 9.661 26.642-6.734 30.448-13.468-3.952 9.808-4.538 20.64 6.735 21.665 11.271 1.025 17.858-29.57 17.858-29.57s-1.903 15.078 10.102 14.638c12.003-.439 10.686-27.52 10.686-27.52s-.586 8.636 2.488 8.636 4.538-7.026 3.22-11.125c-1.317-4.099-13.907-21.226-13.907-21.226z" fill="#ff295c" fill-rule="evenodd" data-original="#ff295c"></path></g><g transform="translate(589.394 1816.1)"><path clip-rule="evenodd" d="m-492.09-1605.962c-44.279 12.959-69.904 32.698-56.725 55.353 9.705 16.684 41.926 10.46 77.434-17.359z" fill="#ffb0c3" fill-rule="evenodd" data-original="#ffb0c3" class=""></path></g><g transform="matrix(.648 .358 -.358 .648 808.084 1810.83)"><path clip-rule="evenodd" d="m-1918.927-1488.957c-44.278 12.959-69.904 32.698-56.725 55.353 9.705 16.684 39.058 12.038 74.566-15.782z" fill="#ffb0c3" fill-rule="evenodd" data-original="#ffb0c3" class=""></path></g><g transform="matrix(.286 .32 -.32 .286 894.369 1921.31)"><path clip-rule="evenodd" d="m-4335.923-1422.857c-44.278 12.959-69.904 32.698-56.725 55.353 9.705 16.684 39.058 12.038 74.566-15.782z" fill="#ffb0c3" fill-rule="evenodd" data-original="#ffb0c3" class=""></path></g><g transform="matrix(1.056 .336 -.468 1.471 769.031 1512.89)"><ellipse clip-rule="evenodd" cx="-873.16" cy="-691.689" fill="#fffc99" fill-rule="evenodd" rx="16.334" ry="23.596" transform="matrix(0 1 -1 0 -1564.847 181.473)" data-original="#fffc99" class=""></ellipse></g><g transform="matrix(.865 -.191 .269 1.22 742.568 1758.77)"><ellipse clip-rule="evenodd" cx="-16.638" cy="-1284.322" fill="#fffc99" fill-rule="evenodd" rx="32.88" ry="11.722" transform="matrix(-1 0 0 -1 -33.278 -2568.644)" data-original="#fffc99" class=""></ellipse></g><g transform="translate(588.126 1814.41)"><path clip-rule="evenodd" d="m-464.857-1544.229s15.199 13.517 23.139 17.254c1.029.484 2.257.042 2.741-.987.484-1.028.041-2.257-.987-2.741-7.614-3.583-22.15-16.599-22.15-16.599-.848-.757-2.152-.683-2.909.166-.756.847-.682 2.15.166 2.907z" fill="#260053" fill-rule="evenodd" data-original="#260053" class=""></path></g><g transform="translate(589.394 1816.1)"><g><path clip-rule="evenodd" d="m-465.018-1565.005c-.003-.038-.134-1.392-.702-2.743-.469-1.116-1.235-2.187-2.302-2.802-1.587-.916-4.254-1.168-8.079 2.45-16.163 15.287-39.753 25.808-56.059 24.221-5.047-.492-9.36-2.164-12.385-5.373-3.042-3.23-4.731-7.977-4.712-14.434.003-1.136-.917-2.062-2.053-2.065s-2.062.917-2.065 2.053c-.022 7.752 2.18 13.392 5.833 17.268 3.671 3.898 8.855 6.052 14.983 6.649 17.214 1.676 42.224-9.188 59.287-25.328 1.066-1.008 1.916-1.6 2.636-1.833.232-.075.413-.124.555-.042.295.171.434.522.564.83.322.768.399 1.538.399 1.538.107 1.129 1.112 1.961 2.243 1.854s1.964-1.112 1.857-2.243z" fill="#260053" fill-rule="evenodd" data-original="#260053" class=""></path></g><g><path clip-rule="evenodd" d="m-559.066-1534.578c.637 3.106 2.137 5.286 4.174 6.63 2.016 1.33 4.584 1.844 7.439 1.541 5.381-.567 11.852-4.064 17.308-10.146.387-.43.351-1.095-.081-1.482-.431-.386-1.095-.35-1.482.081-5.046 5.626-10.987 8.935-15.965 9.46-2.324.246-4.423-.124-6.064-1.206-1.62-1.068-2.768-2.829-3.273-5.298-.117-.568-.671-.934-1.239-.817-.567.115-.933.67-.817 1.237z" fill="#260053" fill-rule="evenodd" data-original="#260053" class=""></path></g><g><path clip-rule="evenodd" d="m-527.544-1525.693c2.43 3.661 5.162 5.406 7.867 5.775 2.738.374 5.506-.656 8.019-2.748 4.69-3.904 8.526-11.582 9.556-19.835.072-.575-.336-1.099-.912-1.171-.575-.072-1.099.337-1.171.912-.958 7.675-4.454 14.85-8.816 18.481-2.012 1.675-4.2 2.581-6.392 2.282-2.227-.304-4.401-1.842-6.402-4.857-.32-.482-.972-.615-1.454-.294-.483.32-.615.972-.295 1.455z" fill="#260053" fill-rule="evenodd" data-original="#260053" class=""></path></g><g><path clip-rule="evenodd" d="m-493.308-1534.878c8.779-1.7 13.707-10.12 14.292-20.014.034-.579-.407-1.076-.986-1.11-.578-.034-1.075.407-1.109.986-.525 8.864-4.731 16.554-12.597 18.077-.568.11-.94.66-.83 1.23.111.568.661.941 1.23.831z" fill="#260053" fill-rule="evenodd" data-original="#260053" class=""></path></g><g><path clip-rule="evenodd" d="m-487.133-1619.907c0-.001 0-.002 0-.002s.16-1.92-.394-3.605c-.368-1.119-1.036-2.117-2.031-2.723-.976-.594-2.325-.899-4.205-.289-16.834 5.461-38.305 1.928-47.955-6.428-2.849-2.468-4.621-5.353-4.608-8.6.014-3.381 1.92-7.024 6.036-10.913.826-.78.863-2.085.082-2.911-.78-.826-2.084-.863-2.91-.083-5.183 4.897-7.308 9.634-7.326 13.89-.017 4.39 2.18 8.395 6.031 11.731 10.455 9.054 33.682 13.149 51.921 7.232.353-.115.604-.215.793-.11.135.075.182.229.234.375.071.204.114.42.151.624.136.764.08 1.457.08 1.457-.1 1.13.739 2.13 1.871 2.228 1.131.098 2.13-.742 2.23-1.873z" fill="#260053" fill-rule="evenodd" data-original="#260053" class=""></path></g><g><path clip-rule="evenodd" d="m-557.825-1637.399c-3.313 3.687-3.191 7.936-.05 10.773 2.87 2.592 8.567 4.026 16.926 2.243.567-.121.929-.678.808-1.245s-.678-.929-1.246-.808c-14.334 3.057-20.066-3.788-14.878-9.561.388-.432.352-1.095-.078-1.482-.432-.385-1.095-.35-1.482.08z" fill="#260053" fill-rule="evenodd" data-original="#260053" class=""></path></g><g><path clip-rule="evenodd" d="m-543.008-1618.337c-.86 3.219.64 6.275 3.905 7.491 1.804.672 4.194.769 7.044-.109 3.99-1.23 8.973-4.407 14.527-10.635.385-.432.347-1.097-.086-1.482-.431-.386-1.096-.348-1.481.085-5.206 5.839-9.837 8.873-13.578 10.025-2.305.71-4.235.692-5.694.148-2.174-.81-3.182-2.839-2.61-4.982.149-.56-.183-1.135-.743-1.285-.559-.148-1.134.184-1.284.744z" fill="#260053" fill-rule="evenodd" data-original="#260053" class=""></path></g><g><path clip-rule="evenodd" d="m-519.326-1614.204c.777 2.764 3.021 4.35 6.099 4.176 3.996-.227 9.678-3.718 14.898-12.264.301-.494.145-1.141-.349-1.443-.495-.301-1.142-.145-1.443.349-4.698 7.694-9.629 11.057-13.225 11.262-1.983.114-3.459-.866-3.958-2.647-.157-.557-.737-.883-1.294-.726-.558.156-.884.736-.728 1.293z" fill="#260053" fill-rule="evenodd" data-original="#260053" class=""></path></g><g><path clip-rule="evenodd" d="m-482.012-1670.591c-.004-.042-.463-4.799-5.3-5.009-1.931-.084-9.295-1.5-15.321-4.943-3.773-2.156-7.071-5.096-7.833-9.17-.172-.918-1.057-1.523-1.974-1.352-.918.172-1.524 1.056-1.353 1.974.941 5.031 4.821 8.822 9.48 11.485 6.623 3.784 14.731 5.294 16.853 5.386 1.896.083 2.079 1.945 2.079 1.945.087.929.913 1.612 1.842 1.526.929-.087 1.614-.912 1.527-1.842z" fill="#260053" fill-rule="evenodd" data-original="#260053" class=""></path></g><g><path clip-rule="evenodd" d="m-515.474-1703.104c-1.598 1.436-2.237 2.928-2.119 4.405.16 2.026 1.901 4.196 5.276 6.298.492.306 1.14.156 1.446-.336s.155-1.14-.336-1.446c-1.393-.867-2.479-1.72-3.228-2.572-.629-.716-1.01-1.409-1.066-2.109-.072-.918.438-1.786 1.43-2.678.431-.388.466-1.052.079-1.483s-1.051-.466-1.482-.079z" fill="#260053" fill-rule="evenodd" data-original="#260053" class=""></path></g><g><path clip-rule="evenodd" d="m-521.695-1689.182c-.002 1.606.753 2.989 2.323 4.111 1.974 1.411 5.392 2.418 10.211 2.954.576.064 1.095-.352 1.159-.927.064-.576-.352-1.095-.928-1.159-3.654-.406-6.436-1.063-8.3-2.021-1.512-.776-2.368-1.714-2.366-2.956 0-.579-.47-1.049-1.048-1.051-.581 0-1.051.47-1.051 1.049z" fill="#260053" fill-rule="evenodd" data-original="#260053" class=""></path></g><g><path clip-rule="evenodd" d="m-513.958-1679.501c-.994 2.085-.518 4.121 1.196 5.39.921.683 2.247 1.144 3.968 1.183 2.311.053 5.406-.659 9.19-2.62.514-.266.714-.9.448-1.414-.267-.514-.901-.716-1.415-.449-4.596 2.383-8 2.806-10.059 2.072-.789-.281-1.34-.734-1.586-1.322-.241-.574-.174-1.251.153-1.937.25-.523.028-1.149-.495-1.398-.523-.25-1.15-.028-1.4.495z" fill="#260053" fill-rule="evenodd" data-original="#260053" class=""></path></g><g><path clip-rule="evenodd" d="m-501.744-1671.227c.305.911.998 1.693 1.971 2.192 1.952 1.003 5.158.879 7.986-1.927.411-.408.414-1.073.006-1.484s-1.073-.413-1.484-.005c-1.722 1.707-3.6 2.146-4.981 1.768-.73-.199-1.311-.622-1.508-1.211-.183-.549-.779-.845-1.328-.661-.55.184-.846.779-.662 1.328z" fill="#260053" fill-rule="evenodd" data-original="#260053" class=""></path></g></g><g transform="matrix(1.233 0 0 1.233 469.471 1753.76)"><circle clip-rule="evenodd" cx="-45.243" cy="-1260.084" fill="#260053" fill-rule="evenodd" r="1.858" data-original="#260053" class=""></circle></g><g transform="translate(589.394 1816.1)"><path clip-rule="evenodd" d="m-285.281-1506.286c31.628-3.107 102.895-30.113 111.294-99.191.138-1.129-.667-2.156-1.796-2.294-1.129-.137-2.156.668-2.294 1.797-8.108 66.692-77.071 92.588-107.607 95.587-1.132.111-1.96 1.12-1.849 2.252.111 1.131 1.12 1.959 2.252 1.849z" fill="#260053" fill-rule="evenodd" data-original="#260053" class=""></path></g><g transform="matrix(.713 -.395 .485 .875 -833.013 669.841)"><g><path clip-rule="evenodd" d="m1323.745 177.049 134.794-50.141 2.555 4.94-135.52 49.961z" fill="#8c4f1e" fill-rule="evenodd" data-original="#8c4f1e"></path><path d="m1324.916 182.777c-.303-.137-.533-.364-.635-.637l-1.827-4.762c-.204-.531.107-1.101.729-1.333l134.793-50.141c.334-.126.713-.132 1.056-.026.335.117.613.326.755.603l2.555 4.943c.289.55-.019 1.185-.689 1.435l-135.521 49.96c-.355.131-.76.13-1.114 0-.035-.012-.069-.028-.102-.042zm.48-5.127 1.016 2.64 132.923-49.003-1.502-2.904z" fill="#260053" data-original="#260053" class=""></path></g></g><g><path clip-rule="evenodd" d="m355.866 322.271s-.933-13.007 6.095-13.706c7.028-.7 10.654 7.261 10.654 7.261s4.452-15.106 10.897-14.756c6.435.35 7.728 13.823 7.728 13.823s14.056-8.438 18.858-6.095c4.791 2.343 3.276 12.88 3.276 12.88s3.859-3.275 10.071-.583c6.201 2.692-2.809 19.791-2.809 19.791l-56.565 3.753s-11.48-5.385-10.42-11.83c1.049-6.446 2.215-10.538 2.215-10.538z" fill="#ffffff" fill-rule="evenodd" data-original="#ffffff"></path><path d="m364.072 346.548c-.28 0-.559-.06-.813-.177-1.309-.617-12.754-6.222-11.496-13.876.9-5.523 1.875-9.319 2.172-10.424-.324-5.561.966-14.726 7.837-15.412 4.845-.518 8.273 2.334 10.312 4.828 1.957-5.022 5.81-12.611 11.533-12.331 5.956.324 8.273 8.219 9.11 12.685 4.677-2.554 13.807-6.903 18.212-4.768 4.041 1.976 4.655 7.697 4.586 11.472 2.09-.595 5.063-.777 8.681.79 1.363.591 2.358 1.691 2.882 3.176 2.097 5.967-4.051 17.923-4.759 19.269-.311.587-.904.971-1.566 1.018l-56.564 3.749c-.043.001-.084.001-.127.001zm-1.266-36.113c-.214 0-.431.009-.654.03-4.209.423-4.58 8.776-4.377 11.671.015.22-.009.444-.069.656-.011.043-1.15 4.082-2.168 10.32-.639 3.896 5.986 8.107 8.914 9.583l54.974-3.646c2.313-4.651 5.141-12.171 4.051-15.265-.216-.617-.522-.82-.794-.936-4.96-2.149-7.96.203-8.088.302-.611.496-1.476.565-2.155.186-.684-.388-1.07-1.148-.96-1.929.425-2.99.442-9.591-2.222-10.894-2.634-1.268-11.721 2.835-17.034 6.019-.561.332-1.258.367-1.844.069-.587-.298-.979-.872-1.044-1.523-.375-3.866-2.319-11.904-5.926-12.098-.039-.004-.078-.004-.116-.004-3.368 0-7.186 7.788-8.843 13.392-.227.764-.904 1.303-1.698 1.363-.856 0-1.545-.384-1.877-1.109-.03-.064-2.921-6.187-8.07-6.187z" fill="#260053" data-original="#260053" class=""></path></g><g transform="translate(-523.164 494.937)"><g><path clip-rule="evenodd" d="m1008.088-124.861s-2.216-19.643-13.028-18.54c-10.823 1.103-3.975 15.233-3.975 15.233s-17.438.88-13.685 28.038c3.753 27.148 26.268 24.286 31.791 16.335 5.512-7.95 1.547-30.243-1.103-41.066z" fill="#ffb0c3" fill-rule="evenodd" data-original="#ffb0c3" class=""></path><path d="m996.85-76.625c-1.495 0-3.001-.168-4.47-.518-5.21-1.247-14.298-5.863-16.635-22.759-1.469-10.631.022-18.717 4.427-24.036 2.889-3.486 6.349-4.919 8.569-5.501-1.068-2.856-2.479-8.073-.401-11.8 1.238-2.218 3.443-3.503 6.549-3.823 12.053-1.307 14.62 18.078 14.844 19.903 1.37 5.618 7.497 32.704.828 42.317-2.692 3.875-8.124 6.217-13.711 6.217zm-.947-65.15c-.222 0-.444.013-.673.035-1.989.203-3.288.897-3.974 2.127-1.696 3.042.386 8.767 1.331 10.717.246.505.22 1.096-.065 1.579s-.794.79-1.353.815c-.19.013-4.865.345-8.472 4.746-3.747 4.573-4.975 11.774-3.644 21.396 1.53 11.067 6.537 18.16 14.102 19.968 6.243 1.493 12.359-1.04 14.661-4.358 4.276-6.161 2.403-24.386-1.353-39.716-.015-.069-.028-.138-.037-.207-.017-.176-2.048-17.102-10.523-17.102z" fill="#260053" data-original="#260053" class=""></path></g></g><g><path clip-rule="evenodd" d="m257.604 202.623s-.511 5.258-1.126 11.586c-1.306 13.441 4.286 26.628 14.856 35.035h.001c7.825 6.212 10.857 16.696 7.56 26.13-.784 2.269-1.622 4.643-2.449 7.028-5.017 14.374-.021 30.339 12.297 39.285.17.127.35.254.519.382 6.297 4.58 9.297 12.434 7.664 20.046-1.039 4.866-1.993 9.297-1.993 9.297l13.176 6.297 46.399-16.696s.806-4.092 1.749-8.894c1.834-9.339-1.177-18.964-8.003-25.579-8.565-8.322-12.18-20.502-9.519-32.141.795-3.488 1.622-7.102 2.385-10.495 2.237-9.774-.678-20.024-7.728-27.169-5.82-5.905-8.735-14.088-7.972-22.346.753-8.035 1.569-16.834 1.569-16.834-6.403 3.307-15.837 1.526-26.872-2.947-3.541-1.431-7.516-1.314-10.961.318-12.603 5.979-22.542 9.18-31.552 7.697z" fill="#fffc99" fill-rule="evenodd" data-original="#fffc99" class=""></path><path d="m308.11 359.682c-.291 0-.582-.065-.85-.194l-13.175-6.299c-.824-.393-1.271-1.299-1.079-2.192l1.991-9.294c1.469-6.843-1.238-13.923-6.895-18.043l-.561-.41c-13.077-9.496-18.302-26.185-12.957-41.497l2.446-7.02c3.02-8.642.235-18.264-6.923-23.946-11.142-8.858-16.969-22.604-15.593-36.769l1.124-11.585c.054-.544.328-1.04.762-1.372.431-.337.977-.479 1.523-.384 7.63 1.26 16.454-.919 30.385-7.533 3.937-1.864 8.508-1.989 12.545-.367 11.723 4.755 19.974 5.738 25.229 3.025.641-.328 1.409-.289 2.008.117.598.401.928 1.1.861 1.816l-1.568 16.84c-.712 7.702 1.989 15.278 7.412 20.775 7.563 7.667 10.646 18.505 8.245 28.994l-2.384 10.493c-2.49 10.89.947 22.492 8.97 30.288 7.333 7.106 10.534 17.34 8.564 27.376l-1.75 8.892c-.134.682-.615 1.243-1.268 1.476l-46.399 16.697c-.212.077-.437.116-.663.116zm-10.92-9.38 11.028 5.272 44.572-16.037 1.534-7.796c1.713-8.72-1.07-17.612-7.44-23.786-9.007-8.75-12.864-21.776-10.068-33.994l2.382-10.489c2.101-9.177-.593-18.652-7.207-25.352-6.241-6.329-9.35-15.045-8.53-23.911l1.273-13.669c-6.148 1.704-14.335.358-25.355-4.103-3.018-1.212-6.435-1.122-9.378.272-13.53 6.42-22.634 8.836-30.629 8.129l-.928 9.561c-1.249 12.832 4.03 25.279 14.119 33.3 8.472 6.726 11.766 18.108 8.196 28.329l-2.446 7.024c-4.77 13.656-.11 28.541 11.591 37.041 0 0 .522.38.522.384 6.916 5.031 10.223 13.69 8.431 22.052z" fill="#260053" data-original="#260053" class=""></path></g><g transform="translate(-.432 -3.884)"><path d="m312.804 361.201c-.032 0-.065-.004-.095-.004-.686-.052-1.202-.652-1.15-1.338l.975-12.995c.802-10.696-3.234-21.029-11.078-28.347l-1.161-1.092c-10.489-9.777-14.583-24.981-10.428-38.723 3.691-12.184.63-25.577-7.993-34.957-1.35-1.454-2.697-2.921-4-4.345-6.925-7.507-9.919-17.888-8.081-27.846l.995-5.385c.127-.677.762-1.117 1.452-1.001.675.125 1.124.777.999 1.45l-.995 5.385c-1.698 9.194 1.066 18.777 7.391 25.633 1.376 1.501 2.718 2.964 4.069 4.422 9.22 10.027 12.495 24.343 8.549 37.368-3.883 12.836-.058 27.044 9.749 36.186l1.161 1.092c8.392 7.827 12.715 18.889 11.856 30.349l-.975 12.995c-.049.653-.595 1.153-1.24 1.153z" fill="#260053" data-original="#260053" class=""></path></g><g><path clip-rule="evenodd" d="m290.864 347.691s-4.314-26.607-12.647-24.265c-8.339 2.343-.466 15.551-.466 15.551s-20.522-9.18-23.332-1.685c-2.811 7.494 13.678 13.303 13.678 13.303z" fill="#41a219" fill-rule="evenodd" data-original="#41a219"></path><path d="m268.096 352.507c-.216 0-.431-.035-.636-.108-1.195-.419-11.755-4.284-14.568-10.312-.852-1.825-.941-3.663-.263-5.467.585-1.562 1.765-2.748 3.409-3.439 4.625-1.92 12.721.345 17.873 2.205-1.146-2.973-2.069-6.813-.876-9.807.79-1.976 2.403-3.361 4.664-3.995 1.622-.449 3.27-.186 4.774.772 6.746 4.306 9.939 22.919 10.282 25.029.082.513-.047 1.035-.356 1.45-.311.419-.777.69-1.292.755l-22.768 2.904c-.081.008-.163.013-.243.013zm-7.746-16.245c-1.117 0-2.088.138-2.837.453-.684.285-1.085.669-1.303 1.251-.308.824-.261 1.622.151 2.502 1.732 3.715 8.849 7.011 11.953 8.172l20.315-2.593c-1.415-7.408-4.554-18.13-8.215-20.464-.757-.488-1.294-.423-1.681-.315-1.467.41-1.926 1.182-2.144 1.726-1.094 2.735 1.141 8.202 2.804 11.002.427.716.339 1.627-.216 2.252-.554.617-1.452.811-2.209.475-4.395-1.963-11.849-4.461-16.618-4.461z" fill="#260053" data-original="#260053" class=""></path></g><path d="m375.085 343.55c-.548 0-1.068-.233-1.432-.643-.365-.41-.535-.962-.466-1.506.032-.255.831-6.209 5.771-9.298 3.488-2.183 8.014-2.347 13.459-.505 1.001.341 1.536 1.428 1.197 2.429s-1.428 1.54-2.427 1.195c-4.302-1.463-7.73-1.424-10.2.125-1.812 1.13-2.833 2.93-3.389 4.349 12.972-.211 26.91-1.536 29.281-3.387-1.299-4.539-9.924-11.762-23.137-10.463-13.367 1.338-15.373 12.197-15.45 12.659-.177 1.04-1.15 1.752-2.2 1.57-1.04-.177-1.745-1.152-1.577-2.192.024-.142 2.492-14.212 18.85-15.843 15.52-1.553 26.03 7.244 27.361 13.902.181.915-.06 1.834-.684 2.597-3.68 4.509-27.68 4.975-34.948 5.009-.003.002-.007.002-.009.002z" fill="#ff7a9a" data-original="#ff7a9a" class=""></path><g><path clip-rule="evenodd" d="m421.166 344.85 21.095-35.289c5.226-8.735 18.562.212 11.364 9.138l-26.353 32.671 27.169-15.455c8.3-4.717 13.696 3.498 7.028 8.427l-29.162 21.551c0-.001-20.3-4.951-11.141-21.043z" fill="#20960f" fill-rule="evenodd" data-original="#20960f" class=""></path><path d="m432.307 367.802c-.151 0-.304-.017-.453-.052-.436-.108-10.711-2.688-13.99-10.29-1.737-4.034-1.187-8.595 1.64-13.556.006-.013.013-.026.022-.039l21.094-35.289c1.829-3.055 4.83-4.621 8.051-4.483 3.49.22 6.787 2.524 8.204 5.738 1.428 3.24.785 6.912-1.76 10.066l-20.017 24.817 18.397-10.463c5.469-3.111 9.973-1.428 11.848 1.458 1.724 2.649 1.603 6.964-2.735 10.169l-29.162 21.551c-.335.248-.734.373-1.139.373zm-9.488-21.992c-2.187 3.853-2.675 7.257-1.445 10.122 2.052 4.776 8.293 7.141 10.558 7.857l28.401-20.99c2.358-1.743 2.604-3.771 1.799-5.005-.923-1.428-3.434-2.101-6.746-.216l-27.167 15.45c-.8.457-1.808.276-2.405-.423-.595-.699-.608-1.726-.03-2.438l26.353-32.67c2.101-2.61 1.832-4.772 1.234-6.122-.841-1.911-2.871-3.335-4.938-3.465-1.299-.052-3.141.311-4.53 2.632z" fill="#260053" data-original="#260053" class=""></path></g><g transform="matrix(.999 .037 -.037 .999 100.315 -46.868)"><path d="m241.38 388.926c-.047.002-.095-.001-.143-.003-.684-.052-1.198-.651-1.148-1.335l.973-12.997c.804-10.698-3.234-21.032-11.076-28.349l-1.163-1.088c-10.489-9.779-14.584-24.985-10.426-38.726 3.691-12.183.628-25.579-7.994-34.956l-4.071-4.421c-6.853-7.431-9.848-17.812-8.01-27.771l.994-5.382c.126-.674.769-1.099 1.453-.999.676.126 1.123.774.999 1.453l-.997 5.382c-1.695 9.19 1.069 18.772 7.394 25.631l4.069 4.422c9.218 10.025 12.492 24.341 8.547 37.367-3.885 12.837-.058 27.043 9.747 36.187l1.161 1.084c8.394 7.832 12.718 18.897 11.858 30.353l-.973 12.997c-.047.638-.569 1.128-1.194 1.151z" fill="#260053" data-original="#260053" class=""></path></g><g transform="matrix(.999 .051 -.051 .999 148.852 -56.921)"><path d="m214.697 400.621c-.054.003-.106.001-.16-.005-.685-.051-1.2-.647-1.148-1.332l.974-12.993c.805-10.699-3.234-21.033-11.075-28.351l-1.16-1.085c-10.491-9.787-14.588-24.991-10.431-38.731 3.69-12.183.628-25.578-7.993-34.955l-4.072-4.422c-6.851-7.433-9.847-17.812-8.01-27.77l.996-5.387c.125-.676.772-1.12 1.452-.999.676.125 1.124.776.999 1.452l-.996 5.387c-1.697 9.186 1.068 18.768 7.393 25.628l4.068 4.422c9.218 10.025 12.494 24.342 8.547 37.368-3.881 12.836-.056 27.043 9.75 36.187l1.164 1.089c8.39 7.829 12.713 18.896 11.854 30.35l-.974 12.994c-.049.633-.562 1.121-1.178 1.153z" fill="#260053" data-original="#260053" class=""></path></g><g><path clip-rule="evenodd" d="m250.816 360.687c7.69-17.427 46.578-22.187 58.026-4.993 3.625-23.406 51.444-30.625 64.971-13.388 13.675-19.95 62.893-7.898 56.766 23.745m0 0c-33.296 11.088-126.094 12.307-179.763-5.364" fill="#ffef98" fill-rule="evenodd" data-original="#ffef98"></path><path d="m355.361 375.654c-36.003 0-76.016-3.948-105.008-13.492-.032-.009-.065-.022-.097-.035-.164-.06-.311-.151-.438-.259 0 0 0 0-.002 0-.181-.155-.321-.345-.414-.557h-.002c-.088-.207-.136-.431-.129-.66.002-.177.037-.358.106-.531.011-.026.022-.052.032-.078 3.885-8.776 15.502-15.23 29.607-16.447 12.256-1.035 23.033 2.226 29.076 8.672 2.904-8.681 11.941-15.679 24.889-19.066 13.971-3.654 31.967-2.42 40.747 6.653 8.772-10.523 26.422-10.778 39.241-5.419 14.65 6.127 21.801 18.044 19.137 31.876-.011.065-.026.125-.043.186-.065.211-.173.406-.311.565-.145.164-.326.302-.537.397-.056.026-.114.047-.175.069-15.161 5.041-43.855 8.126-75.679 8.126zm-102.335-15.882c53.826 17.06 143.848 15.356 176.192 5.091 1.905-11.917-4.56-22.181-17.446-27.57-12.471-5.208-29.604-4.44-36.682 5.889-.278.406-.736.656-1.227.673-.537-.026-.962-.207-1.266-.595-7.363-9.376-25.113-10.661-38.831-7.063-13.272 3.469-22.015 10.847-23.391 19.735-.097.63-.574 1.135-1.197 1.273-.628.142-1.266-.125-1.62-.652-4.785-7.184-15.623-10.985-28.275-9.872-11.935 1.028-22.186 6.205-26.257 13.091z" fill="#260053" data-original="#260053" class=""></path></g><path d="m384.603 374.541c-.805 0-1.484-.621-1.542-1.437-.026-.367-.572-9.134 5.419-15.705 4.002-4.388 9.898-6.696 17.528-6.86 19.353-.397 20.753 16.175 20.764 16.339.056.854-.587 1.588-1.439 1.644-.764.138-1.586-.582-1.65-1.432-.039-.561-1.165-13.656-17.61-13.453-6.735.142-11.876 2.105-15.284 5.825-5.1 5.57-4.645 13.349-4.638 13.427.056.854-.587 1.592-1.439 1.652-.038 0-.073 0-.109 0z" fill="#260053" data-original="#260053" class=""></path><path d="m366.792 374.934c-.714 0-1.357-.5-1.512-1.225-4.651-21.892 7.555-32.847 8.077-33.3.643-.565 1.616-.492 2.179.147s.5 1.618-.14 2.183c-.464.41-11.343 10.29-7.087 30.323.177.837-.356 1.661-1.193 1.838-.108.021-.216.034-.324.034z" fill="#260053" data-original="#260053" class=""></path><path d="m375.538 374.778c-.818 0-1.499-.643-1.542-1.467-1.04-19.722 7.54-30.612 25.499-32.364 13.74-1.545 29.287 4.155 32.976 20.36.188.837-.334 1.665-1.167 1.855-.828.19-1.663-.337-1.853-1.165-3.262-14.35-17.241-19.359-29.632-17.974-16.253 1.588-23.681 11.114-22.733 29.123.045.854-.611 1.583-1.463 1.627-.029.005-.057.005-.085.005z" fill="#260053" data-original="#260053" class=""></path><path d="m312.321 373.514c-.5 0-.992-.242-1.29-.69-5.417-8.137-3.7-17.763-3.624-18.169.155-.837.962-1.424 1.801-1.234.839.155 1.396.962 1.24 1.799-.015.086-1.545 8.819 3.158 15.886.475.712.28 1.674-.429 2.149-.265.173-.563.259-.856.259z" fill="#260053" data-original="#260053" class=""></path><path d="m344.492 374.722c-.009 0-.017 0-.028 0-.854-.017-1.534-.721-1.519-1.575 0-.095.293-9.177 11.49-9.332 6.929.073 8.293 8.69 8.349 9.056.125.846-.457 1.631-1.301 1.756-.828.147-1.631-.453-1.76-1.294-.011-.065-1.031-6.377-5.283-6.42-8.193.112-8.396 6.036-8.4 6.286-.016.846-.706 1.523-1.548 1.523z" fill="#260053" data-original="#260053" class=""></path><path d="m333.799 374.925c-.073 0-.147-.004-.22-.017-.846-.121-1.435-.902-1.314-1.752.028-.198 3.031-19.752 23.113-18.22 10.126.755 11.971 8.008 12.044 8.318.198.833-.315 1.665-1.148 1.864-.841.203-1.665-.315-1.864-1.148-.054-.207-1.471-5.367-9.263-5.945-17.209-1.342-19.72 14.881-19.819 15.571-.11.773-.772 1.329-1.529 1.329zm-10.394-.617c-.731 0-1.381-.522-1.519-1.268-1.803-9.738 1.672-18.522 9.537-24.11 10.301-7.313 25.743-7.71 37.55-.958.742.423.999 1.368.576 2.11-.427.742-1.374 1.005-2.112.574-10.797-6.165-24.871-5.838-34.221.798-6.942 4.932-9.885 12.396-8.288 21.025.157.837-.399 1.648-1.238 1.803-.095.017-.19.026-.285.026z" fill="#260053" data-original="#260053" class=""></path><path d="m303.444 372.759c-.779 0-1.45-.587-1.536-1.381-.056-.509-1.517-12.525-14.104-14.859-12.834-2.386-22.418 8.694-22.513 8.806-.557.647-1.534.729-2.181.181-.651-.552-.736-1.527-.183-2.179.431-.513 10.797-12.59 25.443-9.854 14.894 2.766 16.6 17.431 16.618 17.582.088.846-.526 1.605-1.376 1.696-.056.008-.112.008-.168.008z" fill="#260053" data-original="#260053" class=""></path><path d="m291.55 371.508c-.725 0-1.374-.513-1.519-1.256-.006-.035-.746-3.68-3.238-3.801-2.906-.134-4.806 2.537-4.826 2.563-.498.69-1.458.854-2.155.358-.695-.492-.861-1.45-.369-2.149.116-.164 2.897-4.176 7.501-3.862 4.936.237 6.084 6.066 6.129 6.316.158.837-.393 1.644-1.232 1.803-.096.019-.193.028-.291.028z" fill="#260053" data-original="#260053" class=""></path><path d="m396.847 373.268c-.85 0-1.54-.682-1.547-1.532-.03-3.378 2.015-9.932 9.971-10.558 7.96-.604 10.968 4.936 11.464 7.96.138.846-.436 1.64-1.279 1.778-.85.134-1.642-.436-1.775-1.277-.108-.6-1.288-6.027-8.167-5.372-6.918.544-7.119 6.744-7.119 7.447 0 .854-.688 1.549-1.54 1.553-.003.001-.005.001-.008.001z" fill="#260053" data-original="#260053" class=""></path><path d="m215.908 200.228c-5.581 0-10.724-1.765-15.34-5.272-17.675-13.436-21.008-48.72-21.139-50.217-.233-2.597 1.685-4.888 4.282-5.121 2.597-.255 4.891 1.687 5.124 4.28.03.328 3.1 32.644 17.457 43.547 3.87 2.938 8.165 3.909 13.125 3.007 4.822-.889 8.277-3.227 10.564-7.154 7.343-12.603 1.012-38.223-2.047-47.033-.856-2.464.449-5.156 2.912-6.01 2.47-.85 5.154.449 6.01 2.912.507 1.458 12.294 35.988 1.286 54.886-3.706 6.36-9.432 10.295-17.019 11.688-1.777.323-3.516.487-5.215.487z" fill="#260053" data-original="#260053" class=""></path><g transform="translate(7.94 -2.935)"><g><path clip-rule="evenodd" d="m206.506 282.745 134.794-50.141 2.555 4.94-135.52 49.961z" fill="#8c4f1e" fill-rule="evenodd" data-original="#8c4f1e"></path><path d="m208.336 288.609c-.444 0-.863-.268-1.031-.708l-1.829-4.759c-.106-.276-.097-.582.024-.85.123-.272.345-.479.623-.582l134.791-50.14c.52-.198 1.111.03 1.368.526l2.556 4.94c.145.285.162.613.047.91-.114.293-.349.526-.647.634l-135.521 49.958c-.124.049-.254.071-.381.071zm-.397-5.217 1.038 2.697 133.324-49.147-1.532-2.96z" fill="#260053" data-original="#260053" class=""></path></g></g><path d="m347.208 190.603c-.194 0-.39-.004-.587-.013-3.743-.147-6.977-1.73-9.615-4.703-9.895-11.157-7.943-39.357-7.689-42.537.155-1.929 1.857-3.378 3.773-3.21 1.926.151 3.365 1.842 3.212 3.771-.623 7.818-.77 29.762 5.948 37.33 1.359 1.532 2.837 2.278 4.647 2.351 2 .065 3.59-.57 4.985-2.032 6.135-6.45 5.933-25.037 5.337-31.656-.173-1.929 1.249-3.633 3.178-3.805 1.92-.168 3.629 1.247 3.801 3.176.248 2.761 2.153 27.238-7.238 37.114-2.63 2.764-5.991 4.214-9.752 4.214z" fill="#260053" data-original="#260053" class=""></path><path d="m261.722 205c-5.648 0-10.435-1.273-13.574-3.538-3.45-2.485-4.8-6.023-3.805-9.949.278-1.096 1.378-1.752 2.474-1.471 1.089.276 1.75 1.381 1.473 2.472-.582 2.295.151 4.142 2.239 5.648 6.342 4.578 21.866 3.952 35.899-5.014 4.819-3.068 10.935-3.296 15.964-.6 11.738 6.252 23.486 4.819 26.42 1.087 1.189-1.51.749-3.447-1.309-5.764-.746-.837-.671-2.123.168-2.873.837-.738 2.125-.669 2.874.173 4.841 5.441 2.638 9.492 1.467 10.985-4.401 5.583-18.43 6.964-31.535-.017-3.743-1.998-8.284-1.834-11.861.44-9.185 5.871-18.902 8.421-26.894 8.421z" fill="#260053" data-original="#260053" class=""></path><g><path clip-rule="evenodd" d="m188.757 343.08s-8.233-44.374-.457-59.236c7.777-14.873 29.507-37.748 38.884-32.48 9.378 5.258-3.888 26.533-3.888 26.533s35.911-4.346 36.368 27.667c.458 32.024-29.964 32.258-29.964 32.258s16.926 57.635-18.07 61.525c-34.997 3.891-43.688-21.498-43.688-21.498" fill="#ffb0c3" fill-rule="evenodd" data-original="#ffb0c3" class=""></path><path d="m204.614 401.662c-30.17 0-38.397-22.945-38.482-23.191-.343-1.001.19-2.084 1.187-2.429 1.001-.341 2.084.186 2.431 1.182.341.979 8.746 23.911 41.67 20.218 6.707-.742 11.826-3.698 15.211-8.784 10.97-16.469 1.333-49.963 1.234-50.299-.168-.574-.056-1.195.3-1.678.356-.479.919-.768 1.519-.772.123-.004 12.419-.229 20.609-8.625 5.08-5.208 7.589-12.508 7.458-21.694-.116-8.202-2.707-14.575-7.702-18.945-9.954-8.711-26.364-6.864-26.524-6.847-.708.091-1.445-.25-1.842-.872-.395-.621-.399-1.415-.011-2.036 2.382-3.827 8.228-15.049 6.705-20.977-.341-1.325-1.038-2.265-2.129-2.878-1.184-.669-2.798-.703-4.789-.108-9.725 2.886-25.163 19.761-31.462 31.807-7.382 14.104.561 57.561.643 57.996.192 1.04-.494 2.036-1.532 2.231-1.044.177-2.039-.496-2.231-1.532-.341-1.838-8.262-45.204-.272-60.473 6.12-11.701 21.927-30.185 33.764-33.701 3.02-.893 5.633-.751 7.751.44 2.024 1.135 3.357 2.908 3.963 5.268 1.64 6.386-2.753 15.925-5.376 20.822 5.823-.108 17.549.721 25.844 7.965 5.855 5.117 8.892 12.443 9.026 21.789.147 10.256-2.74 18.479-8.575 24.446-7.063 7.218-16.458 9.091-20.848 9.578 2.075 8.146 7.993 35.699-2.334 51.214-4.043 6.071-10.09 9.596-17.977 10.471-2.539.281-4.949.414-7.229.414z" fill="#260053" data-original="#260053" class=""></path></g></g></g></switch></g></svg>